<svg width="188" height="51" viewBox="0 0 188 51" fill="none" xmlns="http://www.w3.org/2000/svg">
<path fill-rule="evenodd" clip-rule="evenodd" d="M38.4546 39.1828C46.4001 39.1828 52.8411 32.6155 52.8411 24.5142C52.8411 16.413 46.4001 9.84567 38.4546 9.84567C30.5092 9.84567 24.0681 16.413 24.0681 24.5142C24.0681 32.6155 30.5092 39.1828 38.4546 39.1828ZM38.4546 41.6052C47.7122 41.6052 55.2169 33.9533 55.2169 24.5142C55.2169 15.0752 47.7122 7.42334 38.4546 7.42334C29.1971 7.42334 21.6924 15.0752 21.6924 24.5142C21.6924 33.9533 29.1971 41.6052 38.4546 41.6052Z" fill="#DC2C16"/>
<path fill-rule="evenodd" clip-rule="evenodd" d="M39.9845 16.2151C39.9845 16.8786 39.4466 17.4165 38.7832 17.4165C34.5833 17.4165 31.3429 21.2307 31.5355 24.7861C31.5714 25.4486 31.0635 26.0148 30.401 26.0507C29.7384 26.0866 29.1722 25.5786 29.1363 24.9161C28.8704 20.0095 33.1805 15.0137 38.7832 15.0137C39.4466 15.0137 39.9845 15.5516 39.9845 16.2151Z" fill="#DC2C16"/>
<path fill-rule="evenodd" clip-rule="evenodd" d="M5.2447 24.5129C10.3295 32.1575 22.6626 44.0965 40.0515 44.0965C47.027 44.0965 52.9614 42.1701 57.8339 39.3799C58.6584 34.8847 62.5769 31.4794 67.2865 31.4794C67.3765 31.4794 67.4661 31.4807 67.5554 31.4831C69.733 29.0629 71.3925 26.6403 72.5268 24.5688C68.7604 17.3184 58.1998 5.20866 39.9424 4.76742C21.9211 4.33188 9.9891 16.6522 5.2447 24.5129ZM40.0515 48.6602C47.0566 48.6602 53.114 46.9472 58.2191 44.3592C59.537 48.1158 63.0991 50.8078 67.2865 50.8078C72.5953 50.8078 76.8989 46.481 76.8989 41.1436C76.8989 37.6599 75.0655 34.6067 72.3159 32.9062C74.789 29.8796 76.5402 26.9395 77.5664 24.634C74.3178 16.7147 62.2668 0.741997 40.0515 0.205098C17.8363 -0.3318 4.09415 16.2673 0 24.634C4.45017 32.7322 18.6907 48.6602 40.0515 48.6602ZM66.085 35.7746H68.2211V39.9356H72.3597V42.0832H68.2211V46.2441H66.085V42.0832H61.9463V39.9356H66.085V35.7746Z" fill="#DC2C16"/>
<path d="M103.853 21.1104V12.7963H106.768C107.778 12.7963 108.544 12.9905 109.066 13.3788C109.588 13.7633 109.849 14.3286 109.849 15.0747C109.849 15.482 109.744 15.8418 109.535 16.1539C109.325 16.4623 109.034 16.6888 108.66 16.8334C109.087 16.94 109.422 17.1551 109.666 17.4787C109.914 17.8023 110.038 18.1982 110.038 18.6664C110.038 19.4658 109.782 20.0711 109.272 20.4822C108.761 20.8934 108.033 21.1028 107.088 21.1104H103.853ZM105.568 17.4901V19.7342H107.037C107.441 19.7342 107.755 19.639 107.98 19.4487C108.209 19.2546 108.323 18.9881 108.323 18.6493C108.323 17.8879 107.929 17.5015 107.14 17.4901H105.568ZM105.568 16.2795H106.837C107.702 16.2643 108.134 15.9198 108.134 15.246C108.134 14.8691 108.024 14.5988 107.803 14.4352C107.586 14.2677 107.241 14.1839 106.768 14.1839H105.568V16.2795Z" fill="#DC2C16"/>
<path d="M116.336 17.5072H113.044V19.7342H116.908V21.1104H111.329V12.7963H116.897V14.1839H113.044V16.1653H116.336V17.5072Z" fill="#DC2C16"/>
<path d="M119.629 18.181V21.1104H117.914V12.7963H121.16C121.785 12.7963 122.334 12.9105 122.807 13.1389C123.283 13.3674 123.649 13.6928 123.904 14.1154C124.159 14.5341 124.287 15.0119 124.287 15.5486C124.287 16.3633 124.007 17.0066 123.447 17.4787C122.89 17.9469 122.119 18.181 121.132 18.181H119.629ZM119.629 16.7935H121.16C121.614 16.7935 121.959 16.6869 122.195 16.4737C122.435 16.2605 122.555 15.956 122.555 15.5601C122.555 15.1527 122.435 14.8234 122.195 14.5722C121.955 14.321 121.623 14.1915 121.2 14.1839H119.629V16.7935Z" fill="#DC2C16"/>
<path d="M132.003 18.3409C131.938 19.2355 131.607 19.9398 131.009 20.4537C130.414 20.9676 129.629 21.2246 128.654 21.2246C127.587 21.2246 126.747 20.8667 126.133 20.1511C125.523 19.4316 125.219 18.4456 125.219 17.1932V16.685C125.219 15.8855 125.36 15.1813 125.642 14.5722C125.924 13.9631 126.326 13.4968 126.848 13.1732C127.373 12.8458 127.983 12.6821 128.677 12.6821C129.637 12.6821 130.41 12.9391 130.997 13.453C131.584 13.9669 131.923 14.6883 132.015 15.6172H130.3C130.258 15.0804 130.107 14.6921 129.848 14.4523C129.593 14.2087 129.202 14.0868 128.677 14.0868C128.105 14.0868 127.676 14.2924 127.391 14.7035C127.109 15.1109 126.964 15.7447 126.956 16.605V17.2331C126.956 18.1316 127.091 18.7882 127.362 19.2032C127.636 19.6181 128.067 19.8256 128.654 19.8256C129.183 19.8256 129.578 19.7057 129.837 19.4658C130.1 19.2222 130.25 18.8472 130.288 18.3409H132.003Z" fill="#DC2C16"/>
<path d="M138.119 12.7963H139.839V21.1104H138.119V15.5886L134.787 21.1104H133.072V12.7963H134.787V18.3295L138.119 12.7963Z" fill="#DC2C16"/>
<path d="M145.172 21.1104V18.1125H143.777L142.274 21.1104H140.422L142.2 17.5643C141.343 17.0923 140.914 16.3595 140.914 15.3659C140.914 14.5513 141.181 13.9212 141.714 13.4758C142.248 13.0305 142.992 12.8039 143.949 12.7963H146.892V21.1104H145.172ZM142.629 15.4915C142.629 15.956 142.741 16.2929 142.966 16.5022C143.194 16.7116 143.535 16.8163 143.989 16.8163H145.172V14.1839H143.989C143.082 14.1839 142.629 14.6198 142.629 15.4915Z" fill="#DC2C16"/>
<path d="M158.941 23.1546H157.358V21.1104H152.34V23.1489H150.716L150.625 19.7342H151.254C151.593 19.4525 151.854 19.0395 152.037 18.4951C152.223 17.9469 152.349 17.2693 152.414 16.4623L152.654 12.7963H158.107V19.7342H159.078L158.941 23.1546ZM153.22 19.7342H156.392V14.1839H154.283L154.14 16.3709C154.026 17.8365 153.719 18.9576 153.22 19.7342Z" fill="#DC2C16"/>
<path d="M166.84 12.7963V21.1104H165.12V14.1839H162.902L162.765 17.1189C162.708 18.1087 162.582 18.8891 162.388 19.4601C162.193 20.0273 161.91 20.4442 161.536 20.7107C161.163 20.9733 160.652 21.1066 160.004 21.1104H159.558V19.7342L159.844 19.7057C160.275 19.6486 160.582 19.4011 160.764 18.9633C160.951 18.5217 161.069 17.7375 161.119 16.6107L161.262 12.7963H166.84Z" fill="#DC2C16"/>
<path d="M172.184 21.1104V18.1125H170.79L169.287 21.1104H167.435L169.212 17.5643C168.355 17.0923 167.926 16.3595 167.926 15.3659C167.926 14.5513 168.193 13.9212 168.726 13.4758C169.26 13.0305 170.005 12.8039 170.961 12.7963H173.905V21.1104H172.184ZM169.641 15.4915C169.641 15.956 169.753 16.2929 169.978 16.5022C170.207 16.7116 170.548 16.8163 171.001 16.8163H172.184V14.1839H171.001C170.094 14.1839 169.641 14.6198 169.641 15.4915Z" fill="#DC2C16"/>
<path d="M96.8402 34.8195C96.7754 35.7141 96.4439 36.4183 95.8457 36.9323C95.2512 37.4462 94.4663 37.7031 93.4908 37.7031C92.4239 37.7031 91.5837 37.3453 90.9702 36.6296C90.3605 35.9101 90.0557 34.9242 90.0557 33.6717V33.1635C90.0557 32.3641 90.1967 31.6599 90.4786 31.0508C90.7606 30.4417 91.1626 29.9753 91.6846 29.6518C92.2105 29.3244 92.8202 29.1607 93.5137 29.1607C94.4739 29.1607 95.2474 29.4177 95.8342 29.9316C96.421 30.4455 96.7602 31.1669 96.8516 32.0957H95.1369C95.095 31.559 94.9445 31.1707 94.6854 30.9309C94.4301 30.6872 94.0395 30.5654 93.5137 30.5654C92.9421 30.5654 92.5134 30.771 92.2276 31.1821C91.9457 31.5894 91.8009 32.2233 91.7932 33.0836V33.7117C91.7932 34.6101 91.9285 35.2668 92.199 35.6817C92.4734 36.0967 92.904 36.3041 93.4908 36.3041C94.0204 36.3041 94.4148 36.1842 94.6739 35.9444C94.9369 35.7008 95.0874 35.3258 95.1255 34.8195H96.8402Z" fill="#DC2C16"/>
<path d="M104.734 29.2749V37.5889H103.013V30.6625H100.795L100.658 33.5975C100.601 34.5873 100.475 35.3677 100.281 35.9387C100.087 36.5059 99.8028 36.9227 99.4294 37.1892C99.056 37.4519 98.5454 37.5851 97.8976 37.5889H97.4518V36.2128L97.7376 36.1842C98.1681 36.1271 98.4749 35.8797 98.6578 35.4419C98.8445 35.0003 98.9626 34.2161 99.0121 33.0893L99.155 29.2749H104.734Z" fill="#DC2C16"/>
<path d="M111.032 35.8759H108.026L107.454 37.5889H105.631L108.729 29.2749H110.318L113.433 37.5889H111.61L111.032 35.8759ZM108.489 34.4883H110.569L109.523 31.3762L108.489 34.4883Z" fill="#DC2C16"/>
<path d="M119.64 30.6625H115.925V32.2727H117.262C118.242 32.2727 119.017 32.5107 119.589 32.9865C120.164 33.4586 120.452 34.0962 120.452 34.8994C120.452 35.7065 120.166 36.3555 119.594 36.8466C119.027 37.3339 118.27 37.5813 117.325 37.5889H114.193V29.2749H119.64V30.6625ZM115.925 33.6546V36.2128H117.291C117.729 36.2128 118.078 36.0929 118.337 35.853C118.6 35.6132 118.731 35.2915 118.731 34.888C118.731 34.5111 118.606 34.2142 118.354 33.9972C118.106 33.7764 117.765 33.6622 117.331 33.6546H115.925Z" fill="#DC2C16"/>
<path d="M128.385 33.6204C128.385 34.4388 128.24 35.1564 127.951 35.7731C127.661 36.3898 127.246 36.8656 126.705 37.2006C126.167 37.5356 125.55 37.7031 124.853 37.7031C124.163 37.7031 123.548 37.5375 123.007 37.2064C122.466 36.8752 122.046 36.4031 121.749 35.7902C121.452 35.1735 121.301 34.4655 121.298 33.666V33.2549C121.298 32.4364 121.444 31.717 121.738 31.0964C122.035 30.4721 122.452 29.9944 122.989 29.6632C123.531 29.3282 124.148 29.1607 124.841 29.1607C125.535 29.1607 126.15 29.3282 126.688 29.6632C127.229 29.9944 127.646 30.4721 127.939 31.0964C128.236 31.717 128.385 32.4345 128.385 33.2492V33.6204ZM126.648 33.2435C126.648 32.3717 126.491 31.7093 126.179 31.2563C125.866 30.8033 125.421 30.5768 124.841 30.5768C124.266 30.5768 123.822 30.8014 123.51 31.2506C123.197 31.696 123.039 32.3508 123.035 33.2149V33.6204C123.035 34.4693 123.191 35.1278 123.504 35.5961C123.816 36.0643 124.266 36.2984 124.853 36.2984C125.428 36.2984 125.87 36.0738 126.179 35.6246C126.487 35.1716 126.644 34.513 126.648 33.6489V33.2435Z" fill="#DC2C16"/>
<path d="M129.631 37.5889V29.2749H132.546C133.556 29.2749 134.322 29.469 134.844 29.8573C135.366 30.2418 135.627 30.8071 135.627 31.5533C135.627 31.9606 135.522 32.3203 135.312 32.6325C135.103 32.9408 134.811 33.1673 134.438 33.312C134.865 33.4186 135.2 33.6337 135.444 33.9573C135.692 34.2808 135.815 34.6767 135.815 35.145C135.815 35.9444 135.56 36.5497 135.05 36.9608C134.539 37.3719 133.811 37.5813 132.866 37.5889H129.631ZM131.346 33.9687V36.2128H132.815C133.219 36.2128 133.533 36.1176 133.758 35.9273C133.986 35.7331 134.101 35.4666 134.101 35.1278C134.101 34.3665 133.706 33.9801 132.918 33.9687H131.346ZM131.346 32.7581H132.615C133.48 32.7429 133.912 32.3984 133.912 31.7246C133.912 31.3477 133.802 31.0774 133.581 30.9137C133.363 30.7462 133.019 30.6625 132.546 30.6625H131.346V32.7581Z" fill="#DC2C16"/>
<path d="M142.097 29.2749H143.817V37.5889H142.097V32.0672L138.765 37.5889H137.05V29.2749H138.765V34.8081L142.097 29.2749Z" fill="#DC2C16"/>
<path d="M153.145 39.6332H151.562V37.5889H146.544V39.6275H144.921L144.829 36.2128H145.458C145.797 35.9311 146.058 35.518 146.241 34.9737C146.428 34.4255 146.553 33.7479 146.618 32.9408L146.858 29.2749H152.311V36.2128H153.283L153.145 39.6332ZM147.424 36.2128H150.596V30.6625H148.487L148.344 32.8495C148.23 34.3151 147.923 35.4362 147.424 36.2128Z" fill="#DC2C16"/>
<path d="M158.032 37.5889V34.5911H156.638L155.135 37.5889H153.283L155.06 34.0429C154.203 33.5709 153.774 32.8381 153.774 31.8445C153.774 31.0298 154.041 30.3998 154.574 29.9544C155.108 29.509 155.853 29.2825 156.809 29.2749H159.753V37.5889H158.032ZM155.489 31.9701C155.489 32.4345 155.601 32.7714 155.826 32.9808C156.055 33.1902 156.396 33.2949 156.849 33.2949H158.032V30.6625H156.849C155.942 30.6625 155.489 31.0984 155.489 31.9701Z" fill="#DC2C16"/>
<path d="M162.879 29.2749V36.2128H165.188V29.2749H166.909V36.2128H169.195V29.2749H170.91V36.2642H172.007L171.893 39.5875H170.361V37.5889H161.159V29.2749H162.879Z" fill="#DC2C16"/>
<path d="M178.117 29.2749H179.838V37.5889H178.117V32.0672L174.785 37.5889H173.07V29.2749H174.785V34.8081L178.117 29.2749Z" fill="#DC2C16"/>
<path d="M184.405 32.1414L185.965 29.2749H187.937L185.513 33.3977L188 37.5889H186.005L184.405 34.6767L182.804 37.5889H180.809L183.296 33.3977L180.872 29.2749H182.844L184.405 32.1414Z" fill="#DC2C16"/>
</svg>
