<svg width="183" height="41" viewBox="0 0 183 41" fill="none" xmlns="http://www.w3.org/2000/svg">
<path d="M6.03316 0V12.1138H11.5438V16.3418H0V29.5482H6.03316V34.3938H11.5438V40.5694H24.8452V29.7383H29.5482V34.9638H41.8046V22.6125L36.4365 29.1682V16.5793H25.0352V5.17807H13.634L18.527 0H6.03316Z" fill="#04A93D"/>
<path d="M41.8045 0H29.1206V12.0663H41.8045V0Z" fill="#04A93D"/>
<path d="M78.2414 3.84668C71.7807 3.84668 67.0776 8.50219 67.0776 14.7729C67.0776 21.0436 71.8282 25.6991 78.2414 25.6991C84.6071 25.6991 89.3576 21.0436 89.3576 14.7729C89.3576 8.50219 84.6071 3.84668 78.2414 3.84668ZM78.2414 22.9913C73.5383 22.9913 70.0705 19.5234 70.0705 14.7729C70.0705 10.0224 73.5383 6.55448 78.2414 6.55448C82.8969 6.55448 86.3647 10.0224 86.3647 14.7729C86.3647 19.5234 82.8969 22.9913 78.2414 22.9913Z" fill="white"/>
<path d="M113.11 3.7998L104.464 15.7711L95.7227 3.7998H93.2524V25.6997H96.1503V9.83297L104.416 20.6166L112.682 9.78546L112.73 25.6997H115.58V3.7998H113.11Z" fill="white"/>
<path d="M130.687 6.55511C133.015 6.55511 134.962 7.36269 136.578 9.07288L138.525 7.12517C136.625 4.93993 133.775 3.7998 130.544 3.7998C124.179 3.7998 119.428 8.40781 119.428 14.7735C119.428 21.0917 124.179 25.7472 130.497 25.7472C133.775 25.7472 136.578 24.6071 138.478 22.3743L136.53 20.4266C134.915 22.1843 132.92 22.9919 130.639 22.9919C125.889 22.9919 122.374 19.524 122.374 14.7735C122.469 10.023 125.984 6.55511 130.687 6.55511Z" fill="white"/>
<path d="M144.701 16.5787V3.7998H141.708V25.6997H144.701V20.8067L156.91 8.26529V25.6997H159.855V3.7998H157.1L144.701 16.5787Z" fill="white"/>
<path d="M174.962 22.9919C170.211 22.9919 166.696 19.524 166.696 14.7735C166.696 10.023 170.211 6.55511 174.962 6.55511C177.29 6.55511 179.237 7.36269 180.853 9.07288L182.8 7.12517C180.9 4.93993 178.05 3.7998 174.819 3.7998C168.454 3.7998 163.703 8.40781 163.703 14.7735C163.703 21.0917 168.454 25.7472 174.772 25.7472C178.05 25.7472 180.853 24.6071 182.753 22.3743L180.805 20.4266C179.237 22.1843 177.29 22.9919 174.962 22.9919Z" fill="white"/>
<path d="M57.2911 12.6833C57.0536 12.4458 56.721 12.3032 56.3885 12.2557L55.2484 12.0657V11.6382L63.2767 3.7998H59.1438L51.1154 11.7807H50.2128V3.7998H46.3174V25.6997H50.2128V14.9635H54.1082C54.1082 14.9635 54.8683 14.8685 55.7234 16.1037C56.436 17.1488 62.1366 25.7472 62.1366 25.7472H66.3171C66.3171 25.7472 59.9989 16.4362 58.1937 13.7759C58.0512 13.5859 57.6236 12.9683 57.2911 12.6833Z" fill="white"/>
<path d="M46.3662 37.5015V28.8156H49.2058C50.1484 28.8156 50.8563 29.0105 51.3296 29.4002C51.8068 29.79 52.0454 30.3667 52.0454 31.1302C52.0454 31.5359 51.9301 31.8958 51.6994 32.21C51.4688 32.5202 51.1546 32.7608 50.7569 32.9319C51.2262 33.0631 51.596 33.3136 51.8665 33.6835C52.1409 34.0494 52.2781 34.4869 52.2781 34.9959C52.2781 35.7754 52.0256 36.3879 51.5205 36.8333C51.0154 37.2788 50.3015 37.5015 49.3788 37.5015H46.3662ZM47.5116 33.4389V36.5649H49.4027C49.9356 36.5649 50.3552 36.4277 50.6614 36.1533C50.9716 35.8749 51.1267 35.4931 51.1267 35.0079C51.1267 33.9619 50.558 33.4389 49.4206 33.4389H47.5116ZM47.5116 32.5202H49.2416C49.7427 32.5202 50.1424 32.3949 50.4407 32.1444C50.743 31.8938 50.8941 31.5538 50.8941 31.1243C50.8941 30.647 50.7549 30.301 50.4765 30.0863C50.1981 29.8675 49.7745 29.7582 49.2058 29.7582H47.5116V32.5202Z" fill="white"/>
<path d="M58.888 33.4866H55.1237V36.5649H59.4964V37.5015H53.9783V28.8156H59.4368V29.7582H55.1237V32.5501H58.888V33.4866Z" fill="white"/>
<path d="M66.2197 29.7582H62.0318V32.3592H64.1914C65.0981 32.3711 65.806 32.6037 66.3151 33.0571C66.8242 33.5105 67.0787 34.127 67.0787 34.9065C67.0787 35.6899 66.8222 36.3143 66.3091 36.7796C65.7961 37.245 65.0961 37.4856 64.2093 37.5015H60.8805V28.8156H66.2197V29.7582ZM62.0318 33.3017V36.5649H64.1257C64.6945 36.5649 65.1359 36.4138 65.4501 36.1115C65.7683 35.8092 65.9273 35.4036 65.9273 34.8945C65.9273 34.4053 65.7742 34.0196 65.468 33.7372C65.1657 33.4548 64.7342 33.3097 64.1735 33.3017H62.0318Z" fill="white"/>
<path d="M78.0494 34.7454C77.942 35.6641 77.602 36.374 77.0293 36.8751C76.4606 37.3722 75.7029 37.6208 74.7564 37.6208C73.7303 37.6208 72.9071 37.2529 72.2866 36.5172C71.6702 35.7814 71.362 34.7971 71.362 33.5642V32.729C71.362 31.9217 71.5052 31.2118 71.7915 30.5993C72.0818 29.9868 72.4915 29.5176 73.0204 29.1914C73.5494 28.8613 74.1618 28.6963 74.8578 28.6963C75.7805 28.6963 76.5202 28.9548 77.077 29.4718C77.6338 29.9849 77.9579 30.6967 78.0494 31.6075H76.898C76.7986 30.9155 76.5819 30.4144 76.2478 30.1042C75.9177 29.794 75.4544 29.6389 74.8578 29.6389C74.126 29.6389 73.5514 29.9093 73.1338 30.4502C72.7201 30.991 72.5133 31.7606 72.5133 32.7588V33.6C72.5133 34.5426 72.7102 35.2922 73.1039 35.849C73.4977 36.4058 74.0485 36.6842 74.7564 36.6842C75.3927 36.6842 75.8799 36.541 76.218 36.2547C76.56 35.9644 76.7867 35.4613 76.898 34.7454H78.0494Z" fill="white"/>
<path d="M85.4408 29.7582H82.6489V37.5015H81.5094V29.7582H78.7235V28.8156H85.4408V29.7582Z" fill="white"/>
<path d="M89.7121 33.8565L91.7106 28.8156H93.0409L89.9686 36.0518C89.7618 36.5132 89.5689 36.8413 89.39 37.0362C89.211 37.2271 89.0002 37.3742 88.7576 37.4776C88.519 37.577 88.2187 37.6268 87.8568 37.6268C87.5426 37.6268 87.3418 37.6089 87.2543 37.5731L87.2901 36.6663L87.8329 36.6902C88.2505 36.6902 88.5607 36.4893 88.7636 36.0876L88.9127 35.7774L89.1394 35.2465L86.1805 28.8156H87.4631L89.7121 33.8565Z" fill="white"/>
<path d="M101.739 39.6312H100.599V37.5015H94.3653V39.6372H93.2199L93.2139 36.5649H93.9238C94.2976 36.1433 94.5939 35.5786 94.8127 34.8707C95.0354 34.1588 95.1746 33.3793 95.2303 32.5322L95.4212 28.8156H100.617V36.5649H101.751L101.739 39.6312ZM95.2303 36.5649H99.4658V29.7582H96.5248L96.3995 32.3114C96.3478 33.3097 96.2146 34.1608 95.9998 34.8647C95.789 35.5686 95.5325 36.1354 95.2303 36.5649Z" fill="white"/>
<path d="M108.587 28.8156H109.733V37.5015H108.587V30.8081L104.31 37.5015H103.159V28.8156H104.31V35.509L108.587 28.8156Z" fill="white"/>
<path d="M116.366 37.5015V34.119H114.362L112.566 37.5015H111.343L113.36 33.8028C112.238 33.3614 111.677 32.5719 111.677 31.4345C111.677 30.6073 111.948 29.965 112.489 29.5076C113.034 29.0463 113.789 28.8156 114.756 28.8156H117.518V37.5015H116.366ZM112.823 31.4345C112.823 31.9595 112.986 32.381 113.312 32.6992C113.642 33.0174 114.099 33.1784 114.684 33.1824H116.366V29.7582H114.738C114.117 29.7582 113.642 29.9053 113.312 30.1996C112.986 30.4939 112.823 30.9055 112.823 31.4345Z" fill="white"/>
</svg>
